<svg width="100%" height="100%" id="svg" viewBox="0 0 1800 390" xmlns="http://www.w3.org/2000/svg" class="transition duration-300 ease-in-out delay-150"><defs><linearGradient id="gradient" x1="0%" y1="50%" x2="100%" y2="50%"><stop offset="5%" stop-color="#0693e3"></stop><stop offset="95%" stop-color="#8ED1FC"></stop></linearGradient></defs><path d="M 0,400 L 0,100 C 97.42583732057417,85.61722488038278 194.85167464114835,71.23444976076556 305,68 C 415.14832535885165,64.76555023923444 538.0191387559809,72.67942583732057 623,94 C 707.9808612440191,115.32057416267943 755.0717703349281,150.04784688995215 842,138 C 928.9282296650719,125.95215311004785 1055.6937799043062,67.12918660287082 1162,53 C 1268.3062200956938,38.87081339712919 1354.153110047847,69.43540669856459 1440,100 L 1440,400 L 0,400 Z" stroke="none" stroke-width="0" fill="url(#gradient)" fill-opacity="0.53" class="transition-all duration-300 ease-in-out delay-150 path-0"></path><defs><linearGradient id="gradient" x1="0%" y1="50%" x2="100%" y2="50%"><stop offset="5%" stop-color="#0693e3"></stop><stop offset="95%" stop-color="#8ED1FC"></stop></linearGradient></defs><path d="M 0,400 L 0,233 C 120.07655502392345,224.43540669856458 240.1531100478469,215.87081339712918 340,210 C 439.8468899521531,204.12918660287082 519.4641148325359,200.95215311004785 613,191 C 706.5358851674641,181.04784688995215 813.9904306220096,164.32057416267946 906,186 C 998.0095693779904,207.67942583732054 1074.5741626794259,267.76555023923447 1161,282 C 1247.4258373205741,296.23444976076553 1343.712918660287,264.61722488038276 1440,233 L 1440,400 L 0,400 Z" stroke="none" stroke-width="0" fill="url(#gradient)" fill-opacity="1" class="transition-all duration-300 ease-in-out delay-150 path-1"></path></svg>