<!DOCTYPE svg PUBLIC "-//W3C//DTD SVG 1.1//EN" "http://www.w3.org/Graphics/SVG/1.1/DTD/svg11.dtd">
<!-- Uploaded to: SVG Repo, www.svgrepo.com, Transformed by: SVG Repo Mixer Tools -->
<svg height="800px" width="800px" version="1.1" id="Layer_1" xmlns="http://www.w3.org/2000/svg" xmlns:xlink="http://www.w3.org/1999/xlink" viewBox="0 0 511.997 511.997" xml:space="preserve" fill="#000000">
<g id="SVGRepo_bgCarrier" stroke-width="0"/>
<g id="SVGRepo_tracerCarrier" stroke-linecap="round" stroke-linejoin="round"/>
<g id="SVGRepo_iconCarrier"> <g> <polygon style="fill:#ffe98f;" points="221.287,78.099 221.287,364.481 4.338,364.481 "/> <path style="fill:#BDC3C7;" d="M255.999,373.15c-4.799,0-8.678-3.888-8.678-8.678V17.353c0-4.79,3.879-8.678,8.678-8.678 c4.799,0,8.678,3.888,8.678,8.678v347.119C264.677,369.262,260.798,373.15,255.999,373.15"/> <path style="fill:#ffe98f;" d="M507.66,364.479H290.711V78.097C290.711,78.097,507.66,139.398,507.66,364.479"/> <path style="fill:#545454;" d="M4.338,399.184c63.462,69.32,151.899,112.814,253.284,112.814 c101.393,0,186.576-43.494,250.038-112.814H4.338z"/> <polygon style="fill:#f0a3a3;" points="177.897,52.068 264.677,52.068 264.677,0 177.897,0 "/> <g> <path style="fill:#40bbd4;" d="M471.44,425.218h-76.592c-4.799,0-8.678,3.888-8.678,8.678c0,4.79,3.879,8.678,8.678,8.678h65.658 c5.936-4.582,11.733-9.372,17.391-14.336C476.308,426.415,474.043,425.218,471.44,425.218"/> <path style="fill:#40bbd4;" d="M421.838,459.93h-79.056c-4.799,0-8.678,3.888-8.678,8.678c0,4.79,3.879,8.678,8.678,8.678h62.707 c8.062-4.053,15.976-8.374,23.665-13.06C427.635,461.7,424.997,459.93,421.838,459.93"/> </g> </g> </g>
</svg>