<svg id="visual" viewBox="0 0 900 600" width="900" height="600" xmlns="http://www.w3.org/2000/svg" xmlns:xlink="http://www.w3.org/1999/xlink" version="1.1"><rect x="0" y="0" width="900" height="600" fill="#002233"></rect><path d="M0 515L11.5 516.8C23 518.7 46 522.3 69 528.5C92 534.7 115 543.3 138.2 544.7C161.3 546 184.7 540 207.8 539.3C231 538.7 254 543.3 277 545.5C300 547.7 323 547.3 346 542C369 536.7 392 526.3 415.2 526.2C438.3 526 461.7 536 484.8 543.2C508 550.3 531 554.7 554 554.2C577 553.7 600 548.3 623 546.7C646 545 669 547 692.2 541.7C715.3 536.3 738.7 523.7 761.8 520.2C785 516.7 808 522.3 831 526C854 529.7 877 531.3 888.5 532.2L900 533L900 601L888.5 601C877 601 854 601 831 601C808 601 785 601 761.8 601C738.7 601 715.3 601 692.2 601C669 601 646 601 623 601C600 601 577 601 554 601C531 601 508 601 484.8 601C461.7 601 438.3 601 415.2 601C392 601 369 601 346 601C323 601 300 601 277 601C254 601 231 601 207.8 601C184.7 601 161.3 601 138.2 601C115 601 92 601 69 601C46 601 23 601 11.5 601L0 601Z" fill="#0066FF" stroke-linecap="round" stroke-linejoin="miter"></path></svg>